<svg width="225" height="85" viewBox="0 0 225 85" fill="none" xmlns="http://www.w3.org/2000/svg">
<g clip-path="url(#clip0_683_942)">
<mask id="mask0_683_942" style="mask-type:luminance" maskUnits="userSpaceOnUse" x="0" y="0" width="225" height="85">
<path d="M225 0H0V85H225V0Z" fill="white"/>
</mask>
<g mask="url(#mask0_683_942)">
<path d="M76.854 57.8276H84.1804V2.34978H76.854V57.8276ZM133.125 41.5815C133.125 44.4919 132.121 46.8656 130.112 48.7145C128.102 50.5634 125.444 51.4938 122.136 51.4938H106.098V33.4703C106.098 32.3968 106.993 31.5141 108.108 31.5141H122.136C125.444 31.5141 128.102 32.4684 130.112 34.3649C132.121 36.2734 133.125 38.671 133.125 41.5815ZM138.124 49.8238C139.668 47.3905 140.44 44.7305 140.44 41.82C140.44 39.494 139.925 37.3708 138.896 35.4385C137.867 33.5061 136.58 31.9197 135.024 30.6791C133.481 29.4386 131.949 28.5559 130.43 28.0192C132.329 27.2319 133.995 25.8363 135.441 23.8562C136.874 21.8762 137.597 19.5144 137.597 16.759C137.597 14.0036 136.911 11.7015 135.515 9.50667C134.13 7.31189 132.182 5.57038 129.658 4.27022C127.134 2.97005 124.268 2.32593 121.07 2.32593H98.7721V16.592C98.7721 20.2897 101.859 23.2956 105.657 23.2956H106.098V8.69556H121.07C123.888 8.69556 126.13 9.45896 127.784 10.9977C129.438 12.5245 130.271 14.5404 130.271 17.0214C130.271 19.5025 129.438 21.6018 127.784 23.1644C126.13 24.727 123.888 25.5023 121.07 25.5023H107.875C102.84 25.5023 98.7598 29.4744 98.7598 34.3769V57.8395H122.124C125.652 57.8395 128.813 57.1119 131.606 55.6567C134.4 54.2014 136.568 52.2691 138.124 49.8357M153.549 57.8276H160.875V2.34978H153.549V57.8276ZM224.853 57.8276L201.82 2.34978H193.844L181.752 31.4425C180.429 34.6393 182.842 38.1342 186.383 38.1342L197.581 10.7591H197.74L209.906 40.4364H185.084C180.821 40.4364 176.986 42.9532 175.393 46.806L170.811 57.8395H178.383L182.132 48.6429C182.512 47.7125 183.443 47.0923 184.472 47.0923H212.638L217.036 57.8395H224.853V57.8276Z" fill="black"/>
</g>
<mask id="mask1_683_942" style="mask-type:luminance" maskUnits="userSpaceOnUse" x="0" y="-1" width="226" height="86">
<path d="M225 -0.000244141H0.0249023V84.9998H225V-0.000244141Z" fill="white"/>
</mask>
<g mask="url(#mask1_683_942)">
<path d="M28.1049 11.7609C32.1846 11.7609 34.1816 10.9617 39.9399 7.74109C41.5081 6.87034 42.7332 6.22622 44.3259 5.89223L38.874 2.89826C35.6641 1.0494 32.0621 -0.012207 28.1049 -0.012207C24.1476 -0.012207 20.5456 1.0494 17.3357 2.89826L11.8838 5.89223C13.4765 6.21429 14.7016 6.85841 16.2698 7.74109C22.0403 10.9617 24.0251 11.7609 28.1049 11.7609Z" fill="black"/>
<path d="M28.1051 17.6653L14.4078 10.0432C12.8029 9.10087 11.1612 8.61182 9.29894 8.61182C4.16553 8.62374 0 12.6674 0 17.6653C0 20.9455 1.78873 23.8202 4.47182 25.4067L9.32344 28.1143L28.1051 17.6653Z" fill="black"/>
</g>
<path d="M53.037 31.538C54.2254 32.194 55.3035 33.0409 56.1979 34.031V17.6655C56.1979 12.6676 52.0324 8.61206 46.899 8.61206C45.0367 8.61206 43.395 9.10112 41.7901 10.0434L28.0806 17.6655L53.0248 31.538H53.037Z" fill="black"/>
<path d="M28.3256 47.9988C24.2458 47.9988 22.2488 48.798 16.4906 52.0186C14.9224 52.8893 13.6972 53.5334 12.1045 53.8674L17.5564 56.8614C20.7663 58.7103 24.3683 59.7719 28.3256 59.7719C32.2828 59.7719 35.8848 58.7103 39.0947 56.8614L44.5466 53.8674C42.9539 53.5454 41.7165 52.9012 40.1606 52.0186C34.4023 48.798 32.4053 47.9988 28.3256 47.9988Z" fill="black"/>
<path d="M28.3257 42.0946L42.0229 49.7167C43.6279 50.659 45.2696 51.148 47.1318 51.148C52.2652 51.148 56.4308 47.0925 56.4308 42.0946C56.4308 38.8143 54.642 35.9396 51.9467 34.3532L47.0951 31.6455L28.3257 42.0946Z" fill="black"/>
<path d="M3.39381 28.2222C2.20541 27.5662 1.12727 26.7193 0.23291 25.7292V42.0947C0.23291 47.0926 4.39844 51.1481 9.53185 51.1481C11.3941 51.1481 13.0358 50.6591 14.6408 49.7168L28.3503 42.0947L3.39381 28.2222Z" fill="black"/>
<path d="M1.88678 84.5825C1.2987 84.3082 0.845396 83.9623 0.526855 83.5806L1.61724 82.5547C2.25433 83.2108 3.01392 83.5328 3.90829 83.5328C4.4351 83.5328 4.86391 83.4136 5.1702 83.175C5.47649 82.9364 5.63576 82.6382 5.63576 82.2923C5.63576 82.0418 5.55 81.839 5.39073 81.672C5.23146 81.517 5.02318 81.3858 4.77815 81.2784C4.53312 81.183 4.19007 81.0637 3.74902 80.9325C3.12419 80.7417 2.62187 80.5627 2.24207 80.3838C1.86228 80.2049 1.53148 79.9425 1.2497 79.5966C0.980163 79.2387 0.833145 78.7735 0.833145 78.189C0.833145 77.7119 0.967912 77.2825 1.23745 76.8889C1.50698 76.4952 1.88678 76.1851 2.37684 75.9585C2.8669 75.7318 3.43048 75.6125 4.06756 75.6125C4.70464 75.6125 5.32947 75.7318 5.85629 75.9704C6.3831 76.209 6.78741 76.4952 7.08144 76.8173L6.00331 77.855C5.75827 77.6403 5.48874 77.4495 5.1702 77.2944C4.85166 77.1394 4.49636 77.0559 4.11656 77.0559C3.61425 77.0559 3.2222 77.1632 2.94041 77.3779C2.67088 77.5926 2.52386 77.855 2.52386 78.1771C2.52386 78.4276 2.60962 78.6304 2.76889 78.7974C2.92816 78.9524 3.13644 79.0836 3.38147 79.191C3.6265 79.2864 3.96954 79.4057 4.39835 79.5369C5.02318 79.7278 5.52549 79.9067 5.90529 80.0737C6.28509 80.2526 6.61588 80.515 6.89767 80.8609C7.17946 81.2069 7.31422 81.684 7.31422 82.2685C7.31422 82.7575 7.17946 83.2108 6.89767 83.6163C6.62813 84.0219 6.23608 84.3559 5.72152 84.6064C5.20695 84.8569 4.61888 84.9761 3.94504 84.9761C3.16094 84.9761 2.4626 84.833 1.87453 84.5587" fill="#010101"/>
<path d="M9.71571 84.8449H8.00049L11.6882 75.7795H13.5259L17.2014 84.8449H15.4372L14.5673 82.6144H10.6101L9.72796 84.8449H9.71571ZM12.5703 77.5568L11.1614 81.1949H14.0038L12.5948 77.5568H12.5703Z" fill="#010101"/>
<path d="M20.1906 84.8449H18.5244V75.7795H25.1525V77.3183H20.1906V79.7158H24.0866V81.2307H20.1906V84.8449Z" fill="#010101"/>
<path d="M33.5082 84.8449H26.6841V75.7795H33.3857V77.2467H28.3503V79.4415H32.3198V80.8967H28.3503V83.3778H33.5082V84.8449Z" fill="#010101"/>
<path d="M37.1715 84.3678C36.4119 83.9503 35.8115 83.3777 35.3827 82.6621C34.9417 81.9464 34.7334 81.1591 34.7334 80.3003C34.7334 79.4414 34.9539 78.6542 35.3827 77.9385C35.8115 77.2228 36.4119 76.6503 37.1715 76.2328C37.9311 75.8153 38.7764 75.6006 39.7075 75.6006C40.5651 75.6006 41.3247 75.7676 41.9863 76.1135C42.6479 76.4594 43.1747 76.865 43.579 77.3421L42.4396 78.2963C42.0966 77.9385 41.7045 77.6403 41.288 77.4137C40.8592 77.187 40.3446 77.0797 39.7198 77.0797C39.095 77.0797 38.5681 77.2228 38.0536 77.5091C37.5513 77.7954 37.147 78.189 36.8529 78.678C36.5589 79.1671 36.4119 79.7039 36.4119 80.3003C36.4119 80.8967 36.5589 81.4334 36.8529 81.9225C37.147 82.4116 37.539 82.8052 38.0536 83.0915C38.5559 83.3777 39.1072 83.5209 39.7198 83.5209C40.2343 83.5209 40.7122 83.4255 41.141 83.2465C41.5698 83.0557 41.8883 82.8529 42.1088 82.6263V81.3499H40.1486V80.0021H43.7505V83.2465C43.53 83.5209 43.2237 83.7952 42.8194 84.0576C42.4151 84.3201 41.9496 84.5467 41.4228 84.7256C40.8837 84.9045 40.3201 84.988 39.732 84.988C38.8009 84.988 37.9556 84.7733 37.196 84.3558" fill="#010101"/>
<path d="M47.4869 84.511C46.8866 84.1889 46.4088 83.7356 46.078 83.1631C45.735 82.5786 45.5757 81.9225 45.5757 81.1949V75.7795H47.2419V81.1949C47.2419 81.6363 47.3399 82.0299 47.5482 82.3877C47.7565 82.7456 48.0382 83.0199 48.3813 83.2227C48.7366 83.4255 49.1286 83.5328 49.5697 83.5328C50.0107 83.5328 50.366 83.4255 50.7213 83.2227C51.0766 83.0199 51.3584 82.7337 51.5667 82.3758C51.775 82.018 51.8852 81.6243 51.8852 81.2069V75.7915H53.5514V81.2069C53.5514 81.9345 53.3799 82.5905 53.0491 83.175C52.7061 83.7476 52.2405 84.2008 51.6402 84.5229C51.0399 84.8449 50.3415 85.0119 49.5697 85.0119C48.7978 85.0119 48.0995 84.8449 47.4992 84.5229" fill="#010101"/>
<path d="M56.4555 84.8449H54.7402L58.428 75.7795H60.2657L63.9412 84.8449H62.1769L61.3071 82.6144H57.3498L56.4677 84.8449H56.4555ZM59.2978 77.5568L57.8889 81.1949H60.7312L59.3223 77.5568H59.2978Z" fill="#010101"/>
<path d="M72.6642 84.8449H70.8142L68.9642 81.5647H66.9182V84.8449H65.252V75.7795H69.2215C69.8218 75.7795 70.3609 75.9108 70.8264 76.1612C71.292 76.4117 71.6595 76.7696 71.9291 77.199C72.1986 77.6403 72.3334 78.1294 72.3334 78.6781C72.3334 79.2626 72.1863 79.7874 71.88 80.2526C71.5738 80.7178 71.1572 81.0637 70.6181 81.2904L72.6642 84.833V84.8449ZM66.9182 77.2467V80.1095H69.197C69.6258 80.1095 69.9811 79.9783 70.2628 79.7039C70.5324 79.4415 70.6794 79.0956 70.6794 78.6781C70.6794 78.2606 70.5446 77.9147 70.2628 77.6403C69.9933 77.3779 69.638 77.2348 69.197 77.2348H66.9182V77.2467Z" fill="#010101"/>
<path d="M74.4526 84.8449V75.7795H77.6503C78.5569 75.7795 79.3778 75.9823 80.1251 76.3998C80.8725 76.8054 81.4605 77.3541 81.8893 78.0459C82.3181 78.7377 82.5387 79.4892 82.5387 80.3122C82.5387 81.1353 82.3181 81.8868 81.8893 82.5786C81.4605 83.2704 80.8725 83.8191 80.1251 84.2247C79.3778 84.6302 78.5447 84.8449 77.6503 84.8449H74.4526ZM77.638 83.3778C78.2384 83.3778 78.7897 83.2466 79.2798 82.9722C79.7698 82.6979 80.1619 82.3281 80.4314 81.8629C80.7009 81.3977 80.848 80.8848 80.848 80.3122C80.848 79.7397 80.7132 79.2268 80.4314 78.7616C80.1496 78.2964 79.7698 77.9266 79.2798 77.6523C78.7897 77.3779 78.2384 77.2467 77.638 77.2467H76.1066V83.3897H77.638V83.3778Z" fill="#010101"/>
<path d="M86.0305 75.7795H84.3643V84.8449H86.0305V75.7795Z" fill="#010101"/>
<path d="M90.1105 84.8449H88.4688V75.7795H89.9512L94.8396 82.1015H94.8763V75.7795H96.5425V84.8449H95.0356L90.1717 78.523H90.1105V84.8449Z" fill="#010101"/>
<path d="M100.818 84.3678C100.058 83.9503 99.4703 83.3777 99.0292 82.6621C98.6004 81.9464 98.3799 81.1591 98.3799 80.3003C98.3799 79.4414 98.6004 78.6542 99.0292 77.9385C99.4703 77.2228 100.058 76.6503 100.818 76.2328C101.578 75.8153 102.423 75.6006 103.354 75.6006C104.212 75.6006 104.971 75.7676 105.633 76.1135C106.294 76.4594 106.821 76.865 107.226 77.3421L106.086 78.2963C105.743 77.9385 105.351 77.6403 104.934 77.4137C104.518 77.187 103.991 77.0797 103.366 77.0797C102.741 77.0797 102.215 77.2228 101.7 77.5091C101.198 77.7954 100.793 78.189 100.499 78.678C100.205 79.1671 100.058 79.7039 100.058 80.3003C100.058 80.8967 100.205 81.4334 100.499 81.9225C100.793 82.4116 101.198 82.8052 101.7 83.0915C102.202 83.3777 102.766 83.5209 103.366 83.5209C103.881 83.5209 104.359 83.4255 104.787 83.2465C105.216 83.0557 105.535 82.8529 105.755 82.6263V81.3499H103.795V80.0021H107.397V83.2465C107.177 83.5209 106.87 83.7952 106.466 84.0576C106.074 84.3201 105.596 84.5467 105.057 84.7256C104.518 84.9045 103.954 84.988 103.366 84.988C102.435 84.988 101.59 84.7733 100.83 84.3558" fill="#010101"/>
<path d="M114.099 84.5825C113.511 84.3082 113.057 83.9623 112.739 83.5806L113.829 82.5547C114.466 83.2108 115.226 83.5328 116.12 83.5328C116.647 83.5328 117.076 83.4136 117.382 83.175C117.688 82.9364 117.848 82.6382 117.848 82.2923C117.848 82.0418 117.762 81.839 117.603 81.672C117.443 81.517 117.235 81.3858 116.99 81.2784C116.745 81.183 116.402 81.0637 115.961 80.9325C115.336 80.7417 114.834 80.5627 114.454 80.3838C114.074 80.2049 113.743 79.9425 113.462 79.5966C113.192 79.2387 113.045 78.7735 113.045 78.189C113.045 77.7119 113.18 77.2825 113.449 76.8889C113.719 76.4952 114.099 76.1851 114.589 75.9585C115.079 75.7318 115.642 75.6125 116.279 75.6125C116.917 75.6125 117.541 75.7318 118.068 75.9704C118.595 76.209 118.999 76.4952 119.293 76.8173L118.215 77.855C117.97 77.6403 117.701 77.4495 117.382 77.2944C117.064 77.1394 116.708 77.0559 116.328 77.0559C115.826 77.0559 115.434 77.1632 115.152 77.3779C114.883 77.5926 114.736 77.855 114.736 78.1771C114.736 78.4276 114.822 78.6304 114.981 78.7974C115.14 78.9524 115.348 79.0836 115.593 79.191C115.838 79.2864 116.181 79.4057 116.61 79.5369C117.235 79.7278 117.737 79.9067 118.117 80.0737C118.509 80.2526 118.828 80.515 119.11 80.8609C119.379 81.2188 119.526 81.684 119.526 82.2685C119.526 82.7575 119.391 83.2108 119.11 83.6163C118.84 84.0219 118.448 84.3559 117.933 84.6064C117.419 84.8569 116.831 84.9761 116.157 84.9761C115.373 84.9761 114.675 84.833 114.086 84.5587" fill="#010101"/>
<path d="M121.315 84.8449V75.7795H125.125C125.726 75.7795 126.277 75.9108 126.767 76.1732C127.257 76.4356 127.637 76.7934 127.906 77.2467C128.188 77.7 128.323 78.201 128.323 78.7377C128.323 79.2745 128.188 79.7755 127.906 80.2287C127.637 80.682 127.257 81.0399 126.767 81.3023C126.277 81.5647 125.738 81.6959 125.125 81.6959H122.969V84.8449H121.303H121.315ZM125.101 80.2407C125.53 80.2407 125.897 80.0975 126.203 79.8113C126.51 79.525 126.657 79.1671 126.657 78.7497C126.657 78.3322 126.51 77.9743 126.203 77.688C125.897 77.4018 125.53 77.2586 125.101 77.2586H122.969V80.2526H125.101V80.2407Z" fill="#010101"/>
<path d="M131.766 84.3678C131.006 83.9503 130.406 83.3777 129.977 82.6621C129.536 81.9464 129.328 81.1591 129.328 80.3003C129.328 79.4414 129.548 78.6542 129.977 77.9385C130.406 77.2228 131.006 76.6503 131.766 76.2328C132.525 75.8153 133.371 75.6006 134.302 75.6006C135.233 75.6006 136.078 75.8034 136.838 76.2328C137.597 76.6503 138.186 77.2228 138.627 77.9385C139.055 78.6542 139.276 79.4414 139.276 80.3003C139.276 81.1591 139.055 81.9464 138.627 82.6621C138.186 83.3777 137.597 83.9503 136.838 84.3678C136.078 84.7853 135.233 85 134.302 85C133.371 85 132.525 84.7972 131.766 84.3678ZM135.956 83.0915C136.458 82.8052 136.862 82.4235 137.156 81.9225C137.45 81.4335 137.597 80.8967 137.597 80.3003C137.597 79.7039 137.45 79.179 137.156 78.678C136.862 78.189 136.458 77.7954 135.956 77.5091C135.453 77.2228 134.89 77.0797 134.29 77.0797C133.689 77.0797 133.126 77.2228 132.623 77.5091C132.121 77.7954 131.717 78.1771 131.423 78.678C131.129 79.1671 130.982 79.7039 130.982 80.3003C130.982 80.8967 131.129 81.4335 131.423 81.9225C131.717 82.4116 132.109 82.8052 132.623 83.0915C133.138 83.3777 133.689 83.5209 134.29 83.5209C134.89 83.5209 135.441 83.3777 135.956 83.0915Z" fill="#010101"/>
<path d="M148.513 84.8449H146.663L144.813 81.5647H142.767V84.8449H141.101V75.7795H145.071C145.671 75.7795 146.21 75.9108 146.676 76.1612C147.141 76.4117 147.509 76.7696 147.778 77.199C148.048 77.6403 148.182 78.1294 148.182 78.6781C148.182 79.2626 148.035 79.7874 147.729 80.2526C147.423 80.7178 147.006 81.0637 146.467 81.2904L148.513 84.833V84.8449ZM142.767 77.2467V80.1095H145.046C145.475 80.1095 145.83 79.9783 146.112 79.7039C146.382 79.4415 146.529 79.0956 146.529 78.6781C146.529 78.2606 146.394 77.9147 146.112 77.6403C145.83 77.3779 145.487 77.2348 145.046 77.2348H142.767V77.2467Z" fill="#010101"/>
<path d="M153.696 84.8449H152.042V77.2706H149.285V75.7795H156.452V77.2706H153.696V84.8449Z" fill="#010101"/>
<path d="M158.499 84.5825C157.911 84.3082 157.457 83.9623 157.139 83.5806L158.229 82.5547C158.866 83.2108 159.626 83.5328 160.52 83.5328C161.047 83.5328 161.476 83.4136 161.782 83.175C162.088 82.9364 162.248 82.6382 162.248 82.2923C162.248 82.0418 162.162 81.839 162.003 81.672C161.843 81.517 161.635 81.3858 161.39 81.2784C161.145 81.183 160.802 81.0637 160.361 80.9325C159.736 80.7417 159.234 80.5627 158.854 80.3838C158.474 80.2049 158.143 79.9425 157.862 79.5966C157.58 79.2387 157.445 78.7735 157.445 78.189C157.445 77.7119 157.58 77.2825 157.849 76.8889C158.119 76.4952 158.499 76.1851 158.989 75.9585C159.479 75.7318 160.042 75.6125 160.679 75.6125C161.316 75.6125 161.941 75.7318 162.468 75.9704C162.995 76.209 163.399 76.4952 163.693 76.8173L162.615 77.855C162.37 77.6403 162.101 77.4495 161.782 77.2944C161.463 77.1394 161.108 77.0559 160.728 77.0559C160.226 77.0559 159.834 77.1632 159.552 77.3779C159.283 77.5926 159.136 77.855 159.136 78.1771C159.136 78.4276 159.221 78.6304 159.381 78.7974C159.54 78.9524 159.748 79.0836 159.993 79.191C160.238 79.2864 160.581 79.4057 161.01 79.5369C161.635 79.7278 162.137 79.9067 162.517 80.0737C162.909 80.2526 163.228 80.515 163.51 80.8609C163.779 81.2188 163.926 81.684 163.926 82.2685C163.926 82.7575 163.791 83.2108 163.51 83.6163C163.24 84.0219 162.836 84.3559 162.333 84.6064C161.819 84.8569 161.231 84.9761 160.557 84.9761C159.773 84.9761 159.074 84.833 158.486 84.5587" fill="#010101"/>
<path d="M169.231 84.8449V75.7795H173.053C173.617 75.7795 174.119 75.8869 174.56 76.1016C174.989 76.3163 175.332 76.6026 175.565 76.9724C175.81 77.3421 175.92 77.7358 175.92 78.1771C175.92 78.6184 175.81 78.9882 175.577 79.2984C175.357 79.6204 175.075 79.847 174.732 79.9783C175.148 80.1214 175.528 80.3957 175.871 80.7894C176.214 81.183 176.386 81.6601 176.386 82.2088C176.386 82.6859 176.251 83.1273 175.994 83.5209C175.737 83.9265 175.369 84.2366 174.891 84.4752C174.413 84.7137 173.874 84.833 173.274 84.833H169.231V84.8449ZM173.017 79.4296C173.384 79.4296 173.691 79.3222 173.911 79.1075C174.132 78.8928 174.254 78.6184 174.254 78.2845C174.254 77.9505 174.144 77.6761 173.911 77.4614C173.691 77.2467 173.384 77.1394 173.017 77.1394H170.897V79.4296H173.017ZM173.237 83.4851C173.666 83.4851 174.009 83.3539 174.291 83.0796C174.573 82.8172 174.707 82.4832 174.707 82.0895C174.707 81.6959 174.573 81.3738 174.291 81.1114C174.009 80.849 173.654 80.7178 173.237 80.7178H170.897V83.4732H173.237V83.4851Z" fill="#010101"/>
<path d="M185.048 84.8449H178.224V75.7795H184.913V77.2467H179.89V79.4415H183.847V80.8967H179.89V83.3778H185.048V84.8449Z" fill="#010101"/>
<path d="M190.267 84.8449H188.6V77.2706H185.844V75.7795H193.011V77.2706H190.267V84.8449Z" fill="#010101"/>
<path d="M197.826 84.8449H196.16V77.2706H193.416V75.7795H200.583V77.2706H197.826V84.8449Z" fill="#010101"/>
<path d="M203.658 75.7795H201.992V84.8449H203.658V75.7795Z" fill="#010101"/>
<path d="M207.737 84.8449H206.083V75.7795H207.578L212.454 82.1015H212.491V75.7795H214.157V84.8449H212.663L207.786 78.523H207.737V84.8449Z" fill="#010101"/>
<path d="M218.433 84.3678C217.674 83.9503 217.073 83.3777 216.644 82.6621C216.216 81.9464 215.995 81.1591 215.995 80.3003C215.995 79.4414 216.216 78.6542 216.644 77.9385C217.073 77.2228 217.674 76.6503 218.433 76.2328C219.193 75.8153 220.038 75.6006 220.969 75.6006C221.827 75.6006 222.586 75.7676 223.248 76.1135C223.91 76.4594 224.436 76.865 224.841 77.3421L223.701 78.2963C223.358 77.9385 222.966 77.6403 222.55 77.4137C222.121 77.187 221.606 77.0797 220.981 77.0797C220.357 77.0797 219.83 77.2228 219.315 77.5091C218.801 77.7954 218.409 78.189 218.115 78.678C217.821 79.1671 217.674 79.7039 217.674 80.3003C217.674 80.8967 217.821 81.4334 218.115 81.9225C218.409 82.4116 218.813 82.8052 219.315 83.0915C219.818 83.3777 220.381 83.5209 220.981 83.5209C221.496 83.5209 221.974 83.4255 222.403 83.2465C222.831 83.0557 223.15 82.8529 223.371 82.6263V81.3499H221.41V80.0021H225.012V83.2465C224.792 83.5209 224.485 83.7952 224.081 84.0576C223.677 84.3201 223.211 84.5467 222.672 84.7256C222.133 84.9045 221.57 84.988 220.981 84.988C220.05 84.988 219.205 84.7733 218.445 84.3558" fill="#010101"/>
</g>
<defs>
<clipPath id="clip0_683_942">
<rect width="225" height="85" fill="white"/>
</clipPath>
</defs>
</svg>
