<svg xmlns="http://www.w3.org/2000/svg" width="259.998" height="63.083" viewBox="0 0 259.998 63.083">
  <g id="Group_640" data-name="Group 640" transform="translate(-120.633 -57.232)">
    <path id="Path_1" data-name="Path 1" d="M160.045,77.415,139.2,65.726l-13.439-7.579a3.479,3.479,0,0,0-1.691-.437h-.029a3.377,3.377,0,0,0-3.41,3.323V93.769l.029-.35v.35a3.4,3.4,0,0,0,5.1,2.886l34.252-19.24-.058-.029Z" transform="translate(0 -0.244)" fill="#f60"/>
    <path id="Path_2" data-name="Path 2" d="M218.053,78.079l-17.17,9.62,17.17,9.62a1.705,1.705,0,0,0,2.565-1.429V79.508a1.693,1.693,0,0,0-1.72-1.662,1.484,1.484,0,0,0-.845.233" transform="translate(-40.984 -10.528)" fill="#1365d4"/>
    <path id="Path_3" data-name="Path 3" d="M429.208,63.121a2.815,2.815,0,0,1-1.457-.408,3.1,3.1,0,0,1-1.05-1.078,2.9,2.9,0,0,1-.379-1.487,2.794,2.794,0,0,1,.379-1.458,3.014,3.014,0,0,1,1.05-1.049,2.752,2.752,0,0,1,2.886,0,3.016,3.016,0,0,1,1.049,1.049,2.814,2.814,0,0,1,.409,1.458,3,3,0,0,1-.409,1.487,3.1,3.1,0,0,1-1.049,1.078,2.641,2.641,0,0,1-1.429.408M426.934,68.4h4.519V96.849h-4.519V68.4Z" transform="translate(-156.115 0)"/>
    <path id="Path_4" data-name="Path 4" d="M455.158,108.5,474.4,83.869h-17.17V80.05h25.245l-19.3,24.633h18.657V108.5Z" transform="translate(-170.842 -11.653)"/>
    <path id="Path_5" data-name="Path 5" d="M540,109.2a15.06,15.06,0,0,1-7.608-1.924,14.026,14.026,0,0,1-5.305-5.218,15.439,15.439,0,0,1-.817-13.205,15.4,15.4,0,0,1,3.09-4.722,14.67,14.67,0,0,1,4.576-3.178,13.99,13.99,0,0,1,5.568-1.137,14.519,14.519,0,0,1,7.288,1.778,12.927,12.927,0,0,1,4.984,4.956,15.058,15.058,0,0,1,1.866,7.317,3.209,3.209,0,0,1-.029.525c-.029.146-.058.32-.088.525H529.678a10.584,10.584,0,0,0,1.341,5.393,9.616,9.616,0,0,0,3.731,3.673,10.909,10.909,0,0,0,5.481,1.341,10.612,10.612,0,0,0,9.153-4.81l3.323,1.778a13.227,13.227,0,0,1-5.277,5.014A14.489,14.489,0,0,1,540,109.2M529.911,91.589h19.152a9.445,9.445,0,0,0-1.72-4.139,9.151,9.151,0,0,0-3.353-2.8,10.652,10.652,0,0,0-9.037-.029,8.841,8.841,0,0,0-3.352,2.769,9.758,9.758,0,0,0-1.69,4.2" transform="translate(-206.591 -11.532)"/>
    <path id="Path_6" data-name="Path 6" d="M603.266,108.441V80.806h4.518v3.673a9.437,9.437,0,0,1,3.5-3.236,11.194,11.194,0,0,1,5.6-1.312,10.631,10.631,0,0,1,5.451,1.312,8.824,8.824,0,0,1,3.527,3.848,13.355,13.355,0,0,1,1.254,6.035v17.316h-4.518V92.029a9.225,9.225,0,0,0-1.9-6.239,6.729,6.729,0,0,0-5.335-2.157,8.2,8.2,0,0,0-4.081.962,6.849,6.849,0,0,0-2.595,2.565,6.957,6.957,0,0,0-.9,3.5v17.782Z" transform="translate(-246.481 -11.592)"/>
    <path id="Path_7" data-name="Path 7" d="M293.293,81.788,307.14,68h-5.888L289.532,79.776h-3.7V57.709h-4.518V97.092h4.518V84h3.7l11.894,13.089h5.859Z" transform="translate(-82.059 -0.244)"/>
    <path id="Path_8" data-name="Path 8" d="M370.2,79.785v5.976a11.24,11.24,0,0,0-4.46-4.577,13.207,13.207,0,0,0-18.219,5.451,16.918,16.918,0,0,0,.029,15.042,13.877,13.877,0,0,0,4.839,5.218,12.6,12.6,0,0,0,6.851,1.9,12.117,12.117,0,0,0,6.326-1.691,12.844,12.844,0,0,0,4.606-4.664v5.742h4.519V79.785Zm-10.874,24.749c-5.334,0-9.649-4.635-9.649-10.378s4.315-10.378,9.649-10.378,9.649,4.665,9.649,10.378-4.314,10.378-9.649,10.378Z" transform="translate(-114.979 -11.388)"/>
    <path id="Path_9" data-name="Path 9" d="M465.474,165.3h1.632v4.9a8.606,8.606,0,0,1-5.072,1.749,7.143,7.143,0,0,1-3.527-.9,6.753,6.753,0,0,1-3.469-5.918,6.619,6.619,0,0,1,3.5-5.888,7.466,7.466,0,0,1,3.614-.9,7.711,7.711,0,0,1,2.711.5,7.1,7.1,0,0,1,2.3,1.371l-1.049,1.341a6.348,6.348,0,0,0-1.837-1.166,5.876,5.876,0,0,0-2.128-.408,5.31,5.31,0,0,0-2.652.7,4.854,4.854,0,0,0-1.9,1.866,5.215,5.215,0,0,0,0,5.218,5.274,5.274,0,0,0,4.548,2.594,5.714,5.714,0,0,0,1.72-.262,5.479,5.479,0,0,0,1.6-.787V165.3Z" transform="translate(-170.781 -51.633)"/>
    <path id="Path_10" data-name="Path 10" d="M501.876,171.953l-1.4-3.236h-7.055l-1.4,3.236H490.07l5.946-13.38h1.924l5.918,13.38Zm-7.754-4.927h5.626l-2.828-6.5Z" transform="translate(-188.671 -51.755)"/>
    <path id="Path_11" data-name="Path 11" d="M529.241,158.573H531.4l4.9,9.387,4.868-9.387h2.187v13.38h-1.72l-.029-10.669-4.752,9.27h-1.137l-4.81-9.27v10.669h-1.691l.029-13.38Z" transform="translate(-208.661 -51.755)"/>
    <path id="Path_12" data-name="Path 12" d="M573,158.573h1.836v13.38H573Z" transform="translate(-231.024 -51.755)"/>
    <path id="Path_13" data-name="Path 13" d="M601.152,158.573h1.807v13.38h-1.836L593.485,161.6v10.349h-1.836v-13.38h1.865l7.667,10.378-.029-10.378Z" transform="translate(-240.548 -51.755)"/>
    <path id="Path_14" data-name="Path 14" d="M637.652,165.3h1.632v4.9a8.606,8.606,0,0,1-5.073,1.749,7.141,7.141,0,0,1-3.527-.9,6.753,6.753,0,0,1-3.469-5.918,6.617,6.617,0,0,1,3.5-5.888,7.356,7.356,0,0,1,3.586-.9,7.711,7.711,0,0,1,2.711.5,7.1,7.1,0,0,1,2.3,1.371l-1.049,1.341a6.348,6.348,0,0,0-1.837-1.166,5.876,5.876,0,0,0-2.128-.408,5.31,5.31,0,0,0-2.652.7,4.855,4.855,0,0,0-1.9,1.866,5.215,5.215,0,0,0,0,5.218,5.309,5.309,0,0,0,4.547,2.594,5.715,5.715,0,0,0,1.72-.262,5.478,5.478,0,0,0,1.6-.787l.029-3.994Z" transform="translate(-258.712 -51.633)"/>
  </g>
</svg>
